# xmcd
#
# Track frame offsets: 
#        182
#        11457
#        23170
#        33120
#        50507
#        63905
#        75947
#        89927
#
# Disc length: 1351 seconds
#
# Revision: 2
# Processed by: cddbd v1.5PL3 Copyright (c) Steve Scherf et al.
# Submitted via: ExactAudioCopy v0.95a3
#
DISCID=55054508
DTITLE=Albert King - Mean Mean Blues
DYEAR=1993
DGENRE=Blues
TTITLE0=Why Are You So Mean To Me
TTITLE1=The Time Has Come
TTITLE2=This Morning
TTITLE3=Just Plain Blues
TTITLE4=I Walked All Night Long
TTITLE5=I've Made Nights By Myself
TTITLE6=Travelin' To California
TTITLE7=I Need You By My Side
EXTD=
EXTT0=
EXTT1=
EXTT2=
EXTT3=
EXTT4=
EXTT5=
EXTT6=
EXTT7=
PLAYORDER=
